<svg id="Layer_1" data-name="Layer 1" xmlns="http://www.w3.org/2000/svg" viewBox="0 0 680 868"><path d="M371,845.17a5.67,5.67,0,0,1-5.67-5.67v-82a5.67,5.67,0,0,1,11.34,0v82A5.67,5.67,0,0,1,371,845.17Z"/><path d="M309,845.17a5.67,5.67,0,0,1-5.67-5.67v-82a5.67,5.67,0,0,1,11.34,0v82A5.67,5.67,0,0,1,309,845.17Z"/><path d="M599.5,229.67a5.67,5.67,0,0,1-5.67-5.67V105.17H86.17V224a5.67,5.67,0,0,1-11.34,0V99.5a5.67,5.67,0,0,1,5.67-5.67h519a5.67,5.67,0,0,1,5.67,5.67V224A5.67,5.67,0,0,1,599.5,229.67Z"/><path d="M162.5,737.17H139a38,38,0,0,1-37.45-31.3L85,624.64a5.67,5.67,0,0,1,5.55-6.81H149a5.67,5.67,0,1,1,0,11.34H97.45l15.26,74.5s0,.09,0,.14a26.69,26.69,0,0,0,26.3,22H162.5a5.67,5.67,0,1,1,0,11.34Z"/><path d="M220.83,737.17H205.19c-13.39,0-24.7-13.33-26.88-31.7l-11.09-81.2a5.66,5.66,0,0,1,5.61-6.44h38.92a5.67,5.67,0,1,1,0,11.34H179.33L189.55,704c1.49,12.46,8.2,21.79,15.64,21.79h15.64a5.67,5.67,0,1,1,0,11.34Z"/><path d="M279.17,737.17h-7.83c-10.6,0-15.36-16.55-16.28-32l-5.55-81.25a5.67,5.67,0,0,1,5.66-6.06H274.5a5.67,5.67,0,1,1,0,11.34H261.24l5.13,75.25c.8,13.41,4.14,20.05,5.55,21.41h7.25a5.67,5.67,0,0,1,0,11.34Z"/><path d="M337.5,737.17a5.67,5.67,0,0,1-5.67-5.67V625.17a5.77,5.77,0,0,1-.25-1.67,5.67,5.67,0,0,1,5.67-5.67h.25a5.67,5.67,0,0,1,5.67,5.67v108A5.67,5.67,0,0,1,337.5,737.17Z"/><path d="M403.66,737.17h-7.83a5.67,5.67,0,0,1,0-11.34h7.25c1.41-1.36,4.75-8,5.54-21.36l5.14-75.3H400a5.67,5.67,0,0,1,0-11.34h19.83a5.67,5.67,0,0,1,5.66,6.06l-5.55,81.3C419,720.62,414.26,737.17,403.66,737.17Z"/><path d="M469.81,737.17H454.17a5.67,5.67,0,0,1,0-11.34h15.64c7.44,0,14.15-9.33,15.63-21.7l10.23-75H462.75a5.67,5.67,0,0,1,0-11.34h39.42a5.66,5.66,0,0,1,5.61,6.44l-11.1,81.3C494.51,723.84,483.2,737.17,469.81,737.17Z"/><path d="M536,737.17H512.5a5.67,5.67,0,0,1,0-11.34H536a26.69,26.69,0,0,0,26.3-22s0-.1,0-.14l15.26-74.5h-52a5.67,5.67,0,0,1,0-11.34h59a5.67,5.67,0,0,1,5.55,6.81l-16.63,81.23A38,38,0,0,1,536,737.17Z"/><path d="M339.79,236.51a8.57,8.57,0,0,1-6-2.5,8.21,8.21,0,0,1-1-1.29,8.64,8.64,0,0,1-.79-1.47,8.83,8.83,0,0,1-.48-1.59,8.19,8.19,0,0,1,0-3.32,8.83,8.83,0,0,1,.48-1.59,8.64,8.64,0,0,1,.79-1.47,8.21,8.21,0,0,1,1-1.29,8.85,8.85,0,0,1,1.3-1.06,8.62,8.62,0,0,1,3.06-1.27A8.58,8.58,0,0,1,345.8,222a8.27,8.27,0,0,1,1.06,1.29,8.6,8.6,0,0,1,.78,1.47,8.83,8.83,0,0,1,.48,1.59,8.19,8.19,0,0,1,0,3.32,8.83,8.83,0,0,1-.48,1.59,8.6,8.6,0,0,1-.78,1.47A8.27,8.27,0,0,1,345.8,234,8.56,8.56,0,0,1,339.79,236.51Z"/><path d="M331.28,551.58a8.5,8.5,0,0,1,8.51-8.5h0a8.5,8.5,0,0,1,8.5,8.5h0a8.51,8.51,0,0,1-8.5,8.51h0A8.51,8.51,0,0,1,331.28,551.58Z"/><path d="M331.28,522.17a8.51,8.51,0,0,1,8.51-8.51h0a8.51,8.51,0,0,1,8.5,8.51h0a8.51,8.51,0,0,1-8.5,8.5h0A8.51,8.51,0,0,1,331.28,522.17Z"/><path d="M331.28,492.75a8.51,8.51,0,0,1,8.51-8.51h0a8.51,8.51,0,0,1,8.5,8.51h0a8.5,8.5,0,0,1-8.5,8.5h0A8.5,8.5,0,0,1,331.28,492.75Z"/><path d="M331.28,463.33a8.51,8.51,0,0,1,8.51-8.5h0a8.51,8.51,0,0,1,8.5,8.5h0a8.51,8.51,0,0,1-8.5,8.51h0A8.51,8.51,0,0,1,331.28,463.33Z"/><path d="M331.28,433.92a8.51,8.51,0,0,1,8.51-8.51h0a8.51,8.51,0,0,1,8.5,8.51h0a8.51,8.51,0,0,1-8.5,8.5h0A8.51,8.51,0,0,1,331.28,433.92Z"/><path d="M331.28,404.5a8.5,8.5,0,0,1,8.51-8.5h0a8.5,8.5,0,0,1,8.5,8.5h0a8.5,8.5,0,0,1-8.5,8.5h0A8.5,8.5,0,0,1,331.28,404.5Z"/><path d="M331.28,375.08a8.51,8.51,0,0,1,8.51-8.5h0a8.51,8.51,0,0,1,8.5,8.5h0a8.51,8.51,0,0,1-8.5,8.51h0A8.51,8.51,0,0,1,331.28,375.08Z"/><path d="M331.28,345.67a8.51,8.51,0,0,1,8.51-8.51h0a8.51,8.51,0,0,1,8.5,8.51h0a8.51,8.51,0,0,1-8.5,8.5h0A8.51,8.51,0,0,1,331.28,345.67Z"/><path d="M331.28,316.25a8.5,8.5,0,0,1,8.51-8.5h0a8.5,8.5,0,0,1,8.5,8.5h0a8.5,8.5,0,0,1-8.5,8.5h0A8.5,8.5,0,0,1,331.28,316.25Z"/><path d="M331.28,286.83a8.51,8.51,0,0,1,8.51-8.5h0a8.51,8.51,0,0,1,8.5,8.5h0a8.51,8.51,0,0,1-8.5,8.51h0A8.51,8.51,0,0,1,331.28,286.83Z"/><path d="M331.28,257.42a8.51,8.51,0,0,1,8.51-8.51h0a8.51,8.51,0,0,1,8.5,8.51h0a8.51,8.51,0,0,1-8.5,8.5h0A8.51,8.51,0,0,1,331.28,257.42Z"/><path d="M339.79,589.5a8.5,8.5,0,0,1-6-14.51,8.85,8.85,0,0,1,1.3-1.06,8.19,8.19,0,0,1,1.46-.78,9.11,9.11,0,0,1,1.59-.49,8.48,8.48,0,0,1,3.33,0,8.86,8.86,0,0,1,1.59.49,8.28,8.28,0,0,1,1.47.78A8.77,8.77,0,0,1,345.8,575a8.5,8.5,0,0,1,0,12,8.17,8.17,0,0,1-1.29,1.06,8.28,8.28,0,0,1-1.47.78,8.86,8.86,0,0,1-1.59.49A8.49,8.49,0,0,1,339.79,589.5Z"/><path d="M556.5,237.24a8.49,8.49,0,0,1-1.66-.16,8.86,8.86,0,0,1-1.59-.49,8,8,0,0,1-1.47-.78,7.75,7.75,0,0,1-1.29-1.06,8.27,8.27,0,0,1-1.06-1.29,8,8,0,0,1-.78-1.47,8.86,8.86,0,0,1-.49-1.59,8.69,8.69,0,0,1,0-3.32,8.86,8.86,0,0,1,.49-1.59,8,8,0,0,1,.78-1.47,8.57,8.57,0,0,1,2.35-2.35,8,8,0,0,1,1.47-.78,8.86,8.86,0,0,1,1.59-.49,8.43,8.43,0,0,1,3.32,0,8.62,8.62,0,0,1,1.59.49,8,8,0,0,1,1.47.78,7.75,7.75,0,0,1,1.29,1.06,8.27,8.27,0,0,1,1.06,1.29,8,8,0,0,1,.78,1.47,8.12,8.12,0,0,1,.49,1.59,8.69,8.69,0,0,1,0,3.32,8.12,8.12,0,0,1-.49,1.59,8,8,0,0,1-.78,1.47,8.27,8.27,0,0,1-1.06,1.29A8.52,8.52,0,0,1,556.5,237.24Z"/><path d="M415.19,569a8.5,8.5,0,0,1,.28-12h0a8.51,8.51,0,0,1,12,.29h0a8.5,8.5,0,0,1-.29,12h0a8.49,8.49,0,0,1-5.87,2.35h0A8.45,8.45,0,0,1,415.19,569Zm20.19-19.92a8.5,8.5,0,0,1-.71-12h0a8.51,8.51,0,0,1,12-.71h0a8.5,8.5,0,0,1,.71,12h0a8.5,8.5,0,0,1-6.36,2.86h0A8.48,8.48,0,0,1,435.38,549.08Zm18.5-21.51a8.51,8.51,0,0,1-1.65-11.91h0A8.49,8.49,0,0,1,464.14,514h0a8.49,8.49,0,0,1,1.65,11.91h0a8.48,8.48,0,0,1-6.79,3.37h0A8.49,8.49,0,0,1,453.88,527.57Zm16.78-22.89a8.51,8.51,0,0,1-2.52-11.76h0a8.5,8.5,0,0,1,11.76-2.51h0a8.51,8.51,0,0,1,2.52,11.76h0a8.51,8.51,0,0,1-7.15,3.88h0A8.43,8.43,0,0,1,470.66,504.68Zm15.09-24a8.5,8.5,0,0,1-3.31-11.56h0A8.51,8.51,0,0,1,494,465.78h0a8.51,8.51,0,0,1,3.3,11.57h0a8.5,8.5,0,0,1-7.44,4.37h0A8.42,8.42,0,0,1,485.75,480.65Zm13.46-25a8.5,8.5,0,0,1-4-11.33h0a8.51,8.51,0,0,1,11.33-4h0a8.51,8.51,0,0,1,4,11.34h0a8.5,8.5,0,0,1-7.68,4.85h0A8.49,8.49,0,0,1,499.21,455.66Zm11.9-25.77a8.5,8.5,0,0,1-4.67-11.08h0a8.5,8.5,0,0,1,11.08-4.67h0a8.5,8.5,0,0,1,4.67,11.08h0a8.5,8.5,0,0,1-7.88,5.3h0A8.41,8.41,0,0,1,511.11,429.89Zm10.41-26.4a8.51,8.51,0,0,1-5.25-10.82h0a8.5,8.5,0,0,1,10.82-5.25h0a8.49,8.49,0,0,1,5.25,10.81h0a8.51,8.51,0,0,1-8,5.73h0A8.51,8.51,0,0,1,521.52,403.49Zm9-26.92A8.5,8.5,0,0,1,524.76,366h0a8.5,8.5,0,0,1,10.54-5.78h0a8.5,8.5,0,0,1,5.79,10.54h0a8.51,8.51,0,0,1-8.16,6.13h0A8.63,8.63,0,0,1,530.54,376.57Zm7.69-27.34A8.49,8.49,0,0,1,532,339h0a8.5,8.5,0,0,1,10.26-6.27h0A8.51,8.51,0,0,1,548.49,343h0a8.5,8.5,0,0,1-8.26,6.51h0A8.1,8.1,0,0,1,538.23,349.23Zm6.4-27.66a8.51,8.51,0,0,1-6.73-10h0a8.51,8.51,0,0,1,10-6.73h0a8.51,8.51,0,0,1,6.73,10h0a8.51,8.51,0,0,1-8.34,6.89h0A8.26,8.26,0,0,1,544.63,321.57Zm5.17-27.93a8.5,8.5,0,0,1-7.17-9.66h0a8.5,8.5,0,0,1,9.66-7.16h0a8.49,8.49,0,0,1,7.16,9.65h0a8.49,8.49,0,0,1-8.4,7.26h0A8.86,8.86,0,0,1,549.8,293.64Zm3.9-28.14a8.51,8.51,0,0,1-7.62-9.3h0a8.51,8.51,0,0,1,9.31-7.62h0a8.51,8.51,0,0,1,7.62,9.31h0a8.51,8.51,0,0,1-8.45,7.66h0A8.43,8.43,0,0,1,553.7,265.5Z"/><path d="M400.07,590.24a8.5,8.5,0,0,1-6-14.51,8.85,8.85,0,0,1,1.3-1.06,8.62,8.62,0,0,1,3.06-1.27,8.5,8.5,0,1,1,1.66,16.84Z"/><path d="M448.36,237.24a8.56,8.56,0,0,1-6-2.49,8.21,8.21,0,0,1-1-1.29,8.64,8.64,0,0,1-.79-1.47,8.83,8.83,0,0,1-.48-1.59,8.19,8.19,0,0,1,0-3.32,8.83,8.83,0,0,1,.48-1.59,8.64,8.64,0,0,1,.79-1.47,8.49,8.49,0,0,1,3.81-3.13,9.11,9.11,0,0,1,1.59-.49,8.48,8.48,0,0,1,3.33,0,8.86,8.86,0,0,1,1.59.49,8.28,8.28,0,0,1,1.47.78,8.77,8.77,0,0,1,1.29,1.06,8.27,8.27,0,0,1,1.06,1.29,8.6,8.6,0,0,1,.78,1.47,8.83,8.83,0,0,1,.48,1.59,8.19,8.19,0,0,1,0,3.32,8.83,8.83,0,0,1-.48,1.59,8.6,8.6,0,0,1-.78,1.47,8.27,8.27,0,0,1-1.06,1.29,8.17,8.17,0,0,1-1.29,1.06,8.28,8.28,0,0,1-1.47.78,8.86,8.86,0,0,1-1.59.49A8.49,8.49,0,0,1,448.36,237.24Z"/><path d="M377.42,568.64a8.51,8.51,0,0,1-.58-12h0a8.5,8.5,0,0,1,12-.58h0a8.51,8.51,0,0,1,.58,12h0a8.52,8.52,0,0,1-6.3,2.78h0A8.5,8.5,0,0,1,377.42,568.64Z"/><path d="M392,548.79a8.51,8.51,0,0,1-3.9-11.38h0a8.51,8.51,0,0,1,11.38-3.89h0a8.51,8.51,0,0,1,3.9,11.38h0a8.51,8.51,0,0,1-7.65,4.76h0A8.45,8.45,0,0,1,392,548.79Z"/><path d="M403.9,522.42a8.51,8.51,0,0,1-5.28-10.81h0a8.51,8.51,0,0,1,10.81-5.28h0a8.5,8.5,0,0,1,5.27,10.81h0a8.51,8.51,0,0,1-8,5.74h0A8.59,8.59,0,0,1,403.9,522.42Z"/><path d="M412.82,494.89a8.51,8.51,0,0,1-6-10.4h0a8.5,8.5,0,0,1,10.4-6h0a8.51,8.51,0,0,1,6,10.4h0a8.5,8.5,0,0,1-8.22,6.32h0A8.64,8.64,0,0,1,412.82,494.89Z"/><path d="M419.92,466.83a8.5,8.5,0,0,1-6.53-10.1h0a8.51,8.51,0,0,1,10.1-6.53h0A8.51,8.51,0,0,1,430,460.3h0a8.52,8.52,0,0,1-8.31,6.72h0A8.45,8.45,0,0,1,419.92,466.83Z"/><path d="M425.77,438.49a8.51,8.51,0,0,1-6.88-9.87h0a8.51,8.51,0,0,1,9.87-6.87h0a8.49,8.49,0,0,1,6.87,9.86h0a8.49,8.49,0,0,1-8.36,7h0A8.53,8.53,0,0,1,425.77,438.49Z"/><path d="M430.69,410a8.51,8.51,0,0,1-7.14-9.68h0a8.5,8.5,0,0,1,9.68-7.14h0a8.51,8.51,0,0,1,7.14,9.68h0a8.51,8.51,0,0,1-8.4,7.23h0A9.18,9.18,0,0,1,430.69,410Z"/><path d="M434.87,381.34a8.5,8.5,0,0,1-7.34-9.52h0a8.51,8.51,0,0,1,9.52-7.35h0A8.51,8.51,0,0,1,444.4,374h0a8.49,8.49,0,0,1-8.42,7.41h0A8.23,8.23,0,0,1,434.87,381.34Z"/><path d="M438.47,352.62a8.5,8.5,0,0,1-7.51-9.39h0a8.49,8.49,0,0,1,9.39-7.51h0a8.5,8.5,0,0,1,7.51,9.38h0a8.51,8.51,0,0,1-8.44,7.57h0C439.1,352.67,438.79,352.65,438.47,352.62Z"/><path d="M441.57,323.83a8.5,8.5,0,0,1-7.66-9.27h0a8.51,8.51,0,0,1,9.28-7.66h0a8.51,8.51,0,0,1,7.66,9.28h0a8.51,8.51,0,0,1-8.46,7.69h0A7.5,7.5,0,0,1,441.57,323.83Z"/><path d="M444.25,295a8.51,8.51,0,0,1-7.76-9.19h0a8.5,8.5,0,0,1,9.18-7.76h0a8.5,8.5,0,0,1,7.77,9.18h0A8.52,8.52,0,0,1,445,295h0Z"/><path d="M446.53,266.06a8.5,8.5,0,0,1-7.61-9.3h0a8.49,8.49,0,0,1,9.3-7.62h0a8.49,8.49,0,0,1,7.62,9.3h0a8.5,8.5,0,0,1-8.45,7.66h0A8.38,8.38,0,0,1,446.53,266.06Z"/><path d="M368.14,590.24a8.52,8.52,0,1,1,6-2.49A8.52,8.52,0,0,1,368.14,590.24Z"/><path d="M122.06,237.24a8.49,8.49,0,0,0,1.66-.16,8.86,8.86,0,0,0,1.59-.49,8,8,0,0,0,1.47-.78,7.75,7.75,0,0,0,1.29-1.06,8.27,8.27,0,0,0,1.06-1.29,8,8,0,0,0,.78-1.47,8.86,8.86,0,0,0,.49-1.59,8.69,8.69,0,0,0,0-3.32,8.86,8.86,0,0,0-.49-1.59,8,8,0,0,0-.78-1.47,8.57,8.57,0,0,0-2.35-2.35,8,8,0,0,0-1.47-.78,8.86,8.86,0,0,0-1.59-.49,8.43,8.43,0,0,0-3.32,0,8.62,8.62,0,0,0-1.59.49,8,8,0,0,0-1.47.78,7.75,7.75,0,0,0-1.29,1.06A8.27,8.27,0,0,0,115,224a8,8,0,0,0-.78,1.47,8.12,8.12,0,0,0-.49,1.59,8.69,8.69,0,0,0,0,3.32,8.12,8.12,0,0,0,.49,1.59,8,8,0,0,0,.78,1.47,8.27,8.27,0,0,0,1.06,1.29A8.52,8.52,0,0,0,122.06,237.24Z"/><path d="M263.37,569a8.5,8.5,0,0,0-.28-12h0a8.51,8.51,0,0,0-12,.29h0a8.5,8.5,0,0,0,.29,12h0a8.49,8.49,0,0,0,5.87,2.35h0A8.45,8.45,0,0,0,263.37,569Zm-20.19-19.92a8.5,8.5,0,0,0,.71-12h0a8.51,8.51,0,0,0-12-.71h0a8.5,8.5,0,0,0-.71,12h0a8.5,8.5,0,0,0,6.36,2.86h0A8.48,8.48,0,0,0,243.18,549.08Zm-18.5-21.51a8.51,8.51,0,0,0,1.65-11.91h0A8.49,8.49,0,0,0,214.42,514h0a8.49,8.49,0,0,0-1.65,11.91h0a8.48,8.48,0,0,0,6.79,3.37h0A8.49,8.49,0,0,0,224.68,527.57ZM207.9,504.68a8.51,8.51,0,0,0,2.52-11.76h0a8.5,8.5,0,0,0-11.76-2.51h0a8.51,8.51,0,0,0-2.52,11.76h0a8.51,8.51,0,0,0,7.15,3.88h0A8.43,8.43,0,0,0,207.9,504.68Zm-15.09-24a8.5,8.5,0,0,0,3.31-11.56h0a8.51,8.51,0,0,0-11.57-3.31h0a8.51,8.51,0,0,0-3.3,11.57h0a8.5,8.5,0,0,0,7.44,4.37h0A8.42,8.42,0,0,0,192.81,480.65Zm-13.46-25a8.5,8.5,0,0,0,4-11.33h0a8.51,8.51,0,0,0-11.33-4h0a8.51,8.51,0,0,0-4,11.34h0a8.5,8.5,0,0,0,7.68,4.85h0A8.49,8.49,0,0,0,179.35,455.66Zm-11.9-25.77a8.5,8.5,0,0,0,4.67-11.08h0A8.5,8.5,0,0,0,161,414.14h0a8.5,8.5,0,0,0-4.67,11.08h0a8.5,8.5,0,0,0,7.88,5.3h0A8.41,8.41,0,0,0,167.45,429.89ZM157,403.49a8.51,8.51,0,0,0,5.25-10.82h0a8.5,8.5,0,0,0-10.82-5.25h0a8.49,8.49,0,0,0-5.25,10.81h0a8.51,8.51,0,0,0,8,5.73h0A8.51,8.51,0,0,0,157,403.49Zm-9-26.92A8.5,8.5,0,0,0,153.8,366h0a8.5,8.5,0,0,0-10.54-5.78h0a8.5,8.5,0,0,0-5.79,10.54h0a8.51,8.51,0,0,0,8.16,6.13h0A8.63,8.63,0,0,0,148,376.57Zm-7.69-27.34A8.49,8.49,0,0,0,146.6,339h0a8.5,8.5,0,0,0-10.26-6.27h0A8.51,8.51,0,0,0,130.07,343h0a8.5,8.5,0,0,0,8.26,6.51h0A8.1,8.1,0,0,0,140.33,349.23Zm-6.4-27.66a8.51,8.51,0,0,0,6.73-10h0a8.51,8.51,0,0,0-10-6.73h0a8.51,8.51,0,0,0-6.73,10h0a8.51,8.51,0,0,0,8.34,6.89h0A8.26,8.26,0,0,0,133.93,321.57Zm-5.17-27.93a8.5,8.5,0,0,0,7.17-9.66h0a8.5,8.5,0,0,0-9.66-7.16h0a8.49,8.49,0,0,0-7.16,9.65h0a8.49,8.49,0,0,0,8.4,7.26h0A8.86,8.86,0,0,0,128.76,293.64Zm-3.9-28.14a8.51,8.51,0,0,0,7.62-9.3h0a8.51,8.51,0,0,0-9.31-7.62h0a8.51,8.51,0,0,0-7.62,9.31h0a8.51,8.51,0,0,0,8.45,7.66h0A8.43,8.43,0,0,0,124.86,265.5Z"/><path d="M278.49,590.24a8.5,8.5,0,0,0,6-14.51,8.85,8.85,0,0,0-1.3-1.06,8.62,8.62,0,0,0-3.06-1.27,8.5,8.5,0,1,0-1.66,16.84Z"/><path d="M230.2,237.24a8.56,8.56,0,0,0,6-2.49,8.21,8.21,0,0,0,1.05-1.29,8.64,8.64,0,0,0,.79-1.47,8.83,8.83,0,0,0,.48-1.59,8.19,8.19,0,0,0,0-3.32,8.83,8.83,0,0,0-.48-1.59,8.64,8.64,0,0,0-.79-1.47,8.49,8.49,0,0,0-3.81-3.13,9.11,9.11,0,0,0-1.59-.49,8.48,8.48,0,0,0-3.33,0,8.86,8.86,0,0,0-1.59.49,8.28,8.28,0,0,0-1.47.78,8.77,8.77,0,0,0-1.29,1.06,8.27,8.27,0,0,0-1.06,1.29,8.6,8.6,0,0,0-.78,1.47,8.83,8.83,0,0,0-.48,1.59,8.19,8.19,0,0,0,0,3.32,8.83,8.83,0,0,0,.48,1.59,8.6,8.6,0,0,0,.78,1.47,8.27,8.27,0,0,0,1.06,1.29,8.17,8.17,0,0,0,1.29,1.06,8.28,8.28,0,0,0,1.47.78,8.86,8.86,0,0,0,1.59.49A8.49,8.49,0,0,0,230.2,237.24Z"/><path d="M301.14,568.64a8.51,8.51,0,0,0,.58-12h0a8.5,8.5,0,0,0-12-.58h0a8.51,8.51,0,0,0-.58,12h0a8.52,8.52,0,0,0,6.3,2.78h0A8.5,8.5,0,0,0,301.14,568.64Z"/><path d="M286.54,548.79a8.51,8.51,0,0,0,3.9-11.38h0a8.51,8.51,0,0,0-11.38-3.89h0a8.51,8.51,0,0,0-3.9,11.38h0a8.51,8.51,0,0,0,7.65,4.76h0A8.45,8.45,0,0,0,286.54,548.79Z"/><path d="M274.66,522.42a8.51,8.51,0,0,0,5.28-10.81h0a8.51,8.51,0,0,0-10.81-5.28h0a8.5,8.5,0,0,0-5.27,10.81h0a8.51,8.51,0,0,0,8,5.74h0A8.59,8.59,0,0,0,274.66,522.42Z"/><path d="M265.74,494.89a8.51,8.51,0,0,0,6-10.4h0a8.5,8.5,0,0,0-10.4-6h0a8.51,8.51,0,0,0-6,10.4h0a8.5,8.5,0,0,0,8.22,6.32h0A8.64,8.64,0,0,0,265.74,494.89Z"/><path d="M258.64,466.83a8.5,8.5,0,0,0,6.53-10.1h0a8.51,8.51,0,0,0-10.1-6.53h0a8.51,8.51,0,0,0-6.53,10.1h0a8.52,8.52,0,0,0,8.31,6.72h0A8.45,8.45,0,0,0,258.64,466.83Z"/><path d="M252.79,438.49a8.51,8.51,0,0,0,6.88-9.87h0a8.51,8.51,0,0,0-9.87-6.87h0a8.49,8.49,0,0,0-6.87,9.86h0a8.49,8.49,0,0,0,8.36,7h0A8.53,8.53,0,0,0,252.79,438.49Z"/><path d="M247.87,410a8.51,8.51,0,0,0,7.14-9.68h0a8.5,8.5,0,0,0-9.68-7.14h0a8.51,8.51,0,0,0-7.14,9.68h0a8.51,8.51,0,0,0,8.4,7.23h0A9.18,9.18,0,0,0,247.87,410Z"/><path d="M243.69,381.34a8.5,8.5,0,0,0,7.34-9.52h0a8.51,8.51,0,0,0-9.52-7.35h0a8.51,8.51,0,0,0-7.35,9.53h0a8.49,8.49,0,0,0,8.42,7.41h0A8.23,8.23,0,0,0,243.69,381.34Z"/><path d="M240.09,352.62a8.5,8.5,0,0,0,7.51-9.39h0a8.49,8.49,0,0,0-9.39-7.51h0a8.5,8.5,0,0,0-7.51,9.38h0a8.51,8.51,0,0,0,8.44,7.57h0C239.46,352.67,239.77,352.65,240.09,352.62Z"/><path d="M237,323.83a8.5,8.5,0,0,0,7.66-9.27h0a8.51,8.51,0,0,0-9.28-7.66h0a8.51,8.51,0,0,0-7.66,9.28h0a8.51,8.51,0,0,0,8.46,7.69h0A7.5,7.5,0,0,0,237,323.83Z"/><path d="M234.31,295a8.51,8.51,0,0,0,7.76-9.19h0a8.5,8.5,0,0,0-9.18-7.76h0a8.5,8.5,0,0,0-7.77,9.18h0a8.52,8.52,0,0,0,8.47,7.8h0Z"/><path d="M232,266.06a8.5,8.5,0,0,0,7.61-9.3h0a8.49,8.49,0,0,0-9.3-7.62h0a8.49,8.49,0,0,0-7.62,9.3h0a8.5,8.5,0,0,0,8.45,7.66h0A8.38,8.38,0,0,0,232,266.06Z"/><path d="M310.42,590.24a8.52,8.52,0,1,0-6-2.49A8.52,8.52,0,0,0,310.42,590.24Z"/></svg>